<svg xmlns="http://www.w3.org/2000/svg" width="16" height="16" fill="none"><path fill="#CED0D6" fill-rule="evenodd" d="m1.549 5.289-.062.15a.732.732 0 0 0 .06.64l.902 1.525a.778.778 0 0 1 0 .792l-.902 1.525a.732.732 0 0 0-.06.64l.061.15m0-5.422a6.993 6.993 0 0 1 .982-1.652.733.733 0 0 1 .584-.269l1.77.02a.778.778 0 0 0 .686-.396l.868-1.543a.734.734 0 0 1 .526-.372 7.01 7.01 0 0 1 2.08 0 .732.732 0 0 1 .525.37v.002l.87 1.542c.138.248.402.4.685.397l1.77-.02a.734.734 0 0 1 .584.269 7.73 7.73 0 0 1 .1.127 6.996 6.996 0 0 1 .943 1.675.732.732 0 0 1-.06.64l-.902 1.525a.778.778 0 0 0 0 .792l.902 1.525c.115.194.142.43.06.64l-.06.148-.001.002a6.994 6.994 0 0 1-.982 1.652.733.733 0 0 1-.584.269l-1.77-.02a.778.778 0 0 0-.686.396l-.868 1.543a.734.734 0 0 1-.526.372 7.066 7.066 0 0 1-1.92.022h-.001a6.932 6.932 0 0 1-.16-.022.732.732 0 0 1-.525-.372l-.868-1.543a.778.778 0 0 0-.686-.396l-1.77.02a.733.733 0 0 1-.584-.269 6.953 6.953 0 0 1-.982-1.652M3.227 4.37a5.96 5.96 0 0 0-.757 1.306l.84 1.418c.33.559.33 1.253 0 1.812l-.84 1.418.034.08c.192.438.436.85.723 1.226l1.646-.018c.649-.007 1.25.34 1.568.906l.808 1.435.027.003a6.073 6.073 0 0 0 1.483-.003l.808-1.435c.318-.566.92-.913 1.568-.906l1.647.018a5.986 5.986 0 0 0 .756-1.306l-.84-1.418a1.778 1.778 0 0 1 0-1.811l.84-1.419a5.992 5.992 0 0 0-.756-1.307l-1.647.019a1.778 1.778 0 0 1-1.568-.906l-.808-1.435a6.072 6.072 0 0 0-1.51 0l-.808 1.435c-.318.566-.92.913-1.568.906L3.227 4.37Zm4.777 5.28a1.651 1.651 0 1 0 0-3.302 1.651 1.651 0 0 0 0 3.302ZM10.655 8a2.651 2.651 0 1 1-5.302 0 2.651 2.651 0 0 1 5.302 0Z" clip-rule="evenodd"/></svg>