<svg xmlns="http://www.w3.org/2000/svg" width="16" height="16" fill="none"><path fill="#8080F2" d="M10.888 6.166 8.112 4.531a.221.221 0 0 0-.224 0L5.112 6.166A.227.227 0 0 0 5 6.365v3.27a.23.23 0 0 0 .112.199l2.776 1.635a.22.22 0 0 0 .224 0l2.776-1.635A.23.23 0 0 0 11 9.635v-3.27a.23.23 0 0 0-.112-.2v.001Z"/><path fill="#4B32C3" d="m.099 7.71 3.63-5.843a.774.774 0 0 1 .64-.367h7.262c.264 0 .507.156.64.367l3.63 5.83a.656.656 0 0 1 0 .689l-3.63 5.795c-.133.211-.376.319-.64.319H4.369c-.264 0-.507-.105-.64-.316L.1 8.38a.622.622 0 0 1 0-.67Zm3.006 2.81c0 .085.056.165.137.207l4.625 2.468c.08.044.181.044.262 0l4.628-2.468a.245.245 0 0 0 .137-.208V5.583a.245.245 0 0 0-.136-.209L8.133 2.907a.28.28 0 0 0-.262 0L3.242 5.375a.246.246 0 0 0-.137.208v4.936Z"/></svg>