<svg xmlns="http://www.w3.org/2000/svg" width="16" height="16" fill="none"><path fill="#8080F2" d="m5.233 6.327 2.66-1.536a.21.21 0 0 1 .214 0l2.66 1.536c.066.038.107.109.107.186v3.07a.22.22 0 0 1-.108.187l-2.659 1.533a.22.22 0 0 1-.215 0L5.233 9.772a.22.22 0 0 1-.107-.187V6.513c0-.076.04-.148.107-.186"/><path fill="#4B32C3" d="m14.913 7.725-3.177-5.527a.67.67 0 0 0-.559-.345H4.823c-.23 0-.444.148-.56.347L1.088 7.716a.66.66 0 0 0 0 .652l3.177 5.48c.115.2.328.301.56.301h6.353c.23 0 .444-.099.56-.299l3.176-5.49a.62.62 0 0 0 0-.635m-2.63 2.658c0 .081-.05.157-.12.197l-4.047 2.335a.23.23 0 0 1-.229 0l-4.05-2.335a.23.23 0 0 1-.119-.197v-4.67a.23.23 0 0 1 .119-.196l4.047-2.335a.23.23 0 0 1 .229 0l4.05 2.334c.07.041.12.116.12.197z"/></svg>