<svg xmlns="http://www.w3.org/2000/svg" width="16" height="16" fill="none"><rect width="12" height="12" x="2" y="2" fill="#FFF4EB" rx="2"/><path fill="#E66D17" d="M5.889 6c.556-.002 1.126.162 1.558.533.222.185.4.418.553.665.273-.456.673-.844 1.165-1.03a2.64 2.64 0 0 1 1.878.01c.523.198.98.542 1.396.92.325.295.625.62.96.904.176.147.365.286.582.362a.8.8 0 0 0 .834-.223.58.58 0 0 0-.031-.78c-.134-.12-.362-.096-.457.063-.082.125-.036.282.029.404-.172-.13-.345-.31-.344-.546-.036-.273.16-.513.395-.609a1.125 1.125 0 0 1 1.321.39c.278.389.3.9.252 1.362-.059.44-.297.85-.65 1.104-.496.365-1.124.479-1.722.47a4.7 4.7 0 0 1-1.675-.37c-.89-.37-1.723-.88-2.643-1.176a3.1 3.1 0 0 0-.955-.209c-.26-.001-.506-.014-.75.003-.3.03-.597.093-.877.206-.935.3-1.78.824-2.688 1.194-.766.308-1.615.45-2.428.28-.454-.095-.907-.303-1.214-.673a1.72 1.72 0 0 1-.376-1.147C-.013 7.717.07 7.304.319 7a1.12 1.12 0 0 1 .964-.4c.23.01.465.115.607.306.113.152.12.36.07.538a.85.85 0 0 1-.317.38c.068-.12.11-.277.029-.402-.1-.166-.345-.183-.475-.046a.59.59 0 0 0-.086.655c.116.218.356.342.59.367.352.032.657-.194.916-.412.535-.476 1.017-1.02 1.61-1.422.49-.339 1.067-.568 1.661-.565"/><path fill="#E66D17" fill-rule="evenodd" d="M2 4a2 2 0 0 1 2-2h8a2 2 0 0 1 2 2v.5a.5.5 0 0 1-1 0V4a1 1 0 0 0-1-1H4a1 1 0 0 0-1 1v.5a.5.5 0 0 1-1 0zm.5 7a.5.5 0 0 1 .5.5v.5a1 1 0 0 0 1 1h8a1 1 0 0 0 1-1v-.5a.5.5 0 0 1 1 0v.5a2 2 0 0 1-2 2H4a2 2 0 0 1-2-2v-.5a.5.5 0 0 1 .5-.5" clip-rule="evenodd"/></svg>