<svg xmlns="http://www.w3.org/2000/svg" width="16" height="16" fill="none"><path fill="#B589EC" d="M3.185 13V3.9H4.27V13H3.185Zm2.399 0V3.9h1.794c.468 0 .85.132 1.144.396.295.265.512.674.65 1.229.139.55.208 1.267.208 2.151v1.547c0 .884-.07 1.604-.208 2.159-.138.55-.355.957-.65 1.222-.294.264-.676.396-1.144.396H5.584Zm1.794-1.014c.204 0 .369-.098.494-.293.13-.194.226-.493.286-.896.06-.404.091-.928.091-1.574V7.676c0-.645-.03-1.17-.09-1.573-.061-.403-.157-.702-.287-.897-.125-.195-.29-.292-.494-.292H6.67v7.072h.708ZM10.383 3.9h1.073v8.08h2.073V13h-3.146V3.9Z"/></svg>