<svg xmlns="http://www.w3.org/2000/svg" width="16" height="16" fill="none"><path fill="#E08855" d="M2.039 13v-1.02h.52a.532.532 0 0 0 .494-.287c.108-.19.162-.483.162-.877V3.9h1.086v6.981c0 .481-.06.88-.182 1.196-.122.312-.306.544-.553.696-.247.151-.56.227-.942.227h-.585Zm5.059.156c-.438 0-.795-.095-1.072-.286-.278-.19-.484-.485-.618-.884-.13-.403-.195-.92-.195-1.554h1.118c0 .403.026.735.078.995.056.256.141.444.254.566a.596.596 0 0 0 .448.181.539.539 0 0 0 .416-.168c.108-.117.189-.295.24-.534a4.51 4.51 0 0 0 .079-.935c0-.412-.055-.74-.163-.982a1.258 1.258 0 0 0-.494-.578l-.578-.351a2.832 2.832 0 0 1-.709-.611 2.243 2.243 0 0 1-.403-.767 3.505 3.505 0 0 1-.13-1.001c0-.585.059-1.062.176-1.43.121-.369.305-.64.552-.813.247-.173.568-.26.962-.26.403 0 .73.089.982.267.251.173.437.446.559.819.121.368.182.847.182 1.436H7.67c0-.36-.022-.652-.065-.877-.043-.226-.108-.393-.195-.501a.401.401 0 0 0-.338-.162c-.208 0-.36.12-.455.364-.095.238-.143.621-.143 1.15 0 .342.05.624.15.845.104.217.266.392.487.527l.637.39c.286.177.516.383.69.617.177.23.307.5.39.813.081.312.123.675.123 1.091 0 .611-.065 1.112-.195 1.502-.13.386-.332.672-.605.858-.269.182-.62.273-1.053.273ZM12.704 13l-1.371-4.16-.3-.292L9.416 3.9h1.105l1.047 3.114.325.357L13.802 13h-1.098Zm-3.419 0 1.93-5.648.293-.267 1.08-3.185h1.085l-1.651 4.713-.3.292L10.372 13H9.285Z"/></svg>