<svg xmlns="http://www.w3.org/2000/svg" width="16" height="16" fill="none"><path fill="#3574F0" d="M1.266 5.691H3.64c.696.006 1.201.207 1.514.602.313.396.416.936.31 1.62-.041.313-.133.62-.275.921a2.737 2.737 0 0 1-.566.815c-.295.307-.611.502-.948.584a4.361 4.361 0 0 1-1.044.124H1.567l-.336 1.682H0l1.266-6.348Zm1.036 1.01-.531 2.656c.035.006.07.009.106.009h.124c.567.005 1.039-.05 1.417-.169.377-.124.631-.555.761-1.292.106-.62 0-.977-.319-1.072-.313-.094-.705-.138-1.177-.133a2.44 2.44 0 0 1-.204.01h-.186l.009-.01ZM6.865 4h1.222L7.74 5.691h1.1c.602.012 1.05.136 1.346.372.301.236.39.685.266 1.346l-.594 2.948h-1.24l.568-2.815c.059-.296.04-.505-.054-.629s-.298-.186-.61-.186l-.983-.009-.726 3.64H5.59L6.865 4Zm4.897 1.691h2.373c.697.006 1.201.207 1.514.602.313.396.416.936.31 1.62-.041.313-.133.62-.274.921a2.738 2.738 0 0 1-.567.815c-.295.307-.611.502-.947.584a4.361 4.361 0 0 1-1.045.124h-1.063l-.336 1.682h-1.23l1.265-6.348Zm1.036 1.01-.531 2.656c.035.006.07.009.106.009h.124c.567.005 1.039-.05 1.417-.169.377-.124.631-.555.761-1.292.106-.62 0-.977-.319-1.072-.313-.094-.705-.138-1.177-.133a2.44 2.44 0 0 1-.204.01h-.186l.01-.01Z"/></svg>