<svg xmlns="http://www.w3.org/2000/svg" width="16" height="16" fill="none"><path fill="#548AF7" d="M1.266 5.691H3.64q1.044.01 1.514.602.47.594.31 1.62-.062.47-.275.921a2.7 2.7 0 0 1-.566.815q-.442.46-.948.584a4.4 4.4 0 0 1-1.044.124H1.567l-.336 1.682H0zm1.036 1.01-.531 2.656q.052.009.106.009h.124q.85.008 1.417-.169.566-.186.761-1.292.16-.93-.319-1.072-.47-.14-1.177-.133a2 2 0 0 1-.204.01h-.186l.009-.01ZM6.865 4h1.222L7.74 5.691h1.1q.902.018 1.346.372.452.354.266 1.346l-.594 2.948h-1.24l.568-2.815q.088-.444-.054-.629c-.142-.185-.298-.186-.61-.186l-.983-.009-.726 3.64H5.59zm4.897 1.691h2.373q1.045.01 1.514.602.47.594.31 1.62-.062.47-.274.921a2.7 2.7 0 0 1-.567.815q-.443.46-.947.584a4.4 4.4 0 0 1-1.045.124h-1.063l-.336 1.682h-1.23zm1.036 1.01-.531 2.656q.052.009.106.009h.124q.85.008 1.417-.169.566-.186.761-1.292.16-.93-.319-1.072-.47-.14-1.177-.133a2 2 0 0 1-.204.01h-.186l.01-.01Z"/></svg>