<svg xmlns="http://www.w3.org/2000/svg" width="16" height="16" fill="none"><g fill="#000" clip-path="url(#a)"><path d="M8 .762C4.01.762.763 4.012.763 8c0 3.989 3.249 7.238 7.237 7.238 3.989 0 7.238-3.25 7.238-7.238 0-3.989-3.25-7.238-7.238-7.238Zm-.01.644a.474.474 0 0 1 .462.476.476.476 0 1 1-.463-.476Zm1.09.783a5.86 5.86 0 0 1 4.01 2.857l-.561 1.268a.438.438 0 0 0 .22.574l1.082.48c.033.338.037.678.012 1.016h-.602c-.06 0-.084.04-.084.098v.276c0 .649-.366.791-.688.827-.306.035-.644-.129-.687-.316-.18-1.015-.48-1.23-.956-1.606.59-.373 1.202-.926 1.202-1.664 0-.798-.546-1.3-.918-1.547a2.613 2.613 0 0 0-1.26-.412H3.635a5.86 5.86 0 0 1 3.278-1.85l.733.769c.166.173.44.18.613.014l.82-.783ZM2.311 5.714a.476.476 0 1 1-.028.952.476.476 0 0 1 .028-.952Zm11.353.021a.476.476 0 1 1-.027.952.476.476 0 0 1 .027-.952ZM3.21 5.812h.83v3.742H2.364a5.86 5.86 0 0 1-.19-2.237L3.2 6.861a.434.434 0 0 0 .22-.573l-.21-.476Zm3.464.04H8.65c.103 0 .721.118.721.582 0 .384-.474.522-.865.522H6.671l.002-1.104Zm0 2.688h1.514c.138 0 .74.04.93.809.06.236.194 1.004.284 1.25.09.276.456.828.847.828h2.47a5.866 5.866 0 0 1-.541.627l-1.006-.216a.435.435 0 0 0-.516.334l-.239 1.115a5.86 5.86 0 0 1-4.886-.023l-.238-1.115a.433.433 0 0 0-.515-.333l-.984.21a5.868 5.868 0 0 1-.509-.6h4.788c.054 0 .09-.009.09-.06V9.674c0-.049-.036-.06-.09-.06H6.671l.002-1.073Zm-2.21 3.879a.476.476 0 1 1-.028.952.476.476 0 0 1 .028-.952Zm7.05.021a.476.476 0 1 1-.026.951.476.476 0 0 1 .027-.95Z"/><path fill-rule="evenodd" d="M14.833 8A6.833 6.833 0 1 1 1.167 8a6.833 6.833 0 0 1 13.666 0Zm-.128-.66L15.77 8l-1.065.66.915.856-1.172.44.731 1.017-1.238.202.52 1.143-1.254-.045.288 1.222-1.222-.288.045 1.254-1.143-.52-.202 1.238-1.018-.732-.44 1.173-.855-.915L8 15.77l-.66-1.065-.856.915-.44-1.173-1.017.732-.202-1.238-1.143.52.045-1.254-1.222.288.288-1.222-1.254.045.52-1.143-1.238-.202.732-1.018-1.173-.44.915-.855L.23 8l1.065-.66-.915-.856 1.173-.44L.82 5.028l1.238-.203-.52-1.142 1.254.045-.288-1.222 1.222.288-.045-1.254 1.143.52.202-1.238 1.018.731.44-1.172.855.915L8 .23l.66 1.065.856-.915.44 1.172 1.017-.731.202 1.238 1.143-.52-.045 1.254 1.222-.288-.288 1.222 1.254-.045-.52 1.142 1.238.203-.732 1.018 1.173.44-.915.855Z" clip-rule="evenodd"/><path fill-rule="evenodd" d="M8 0a.23.23 0 0 1 .195.109l.502.81.651-.696a.23.23 0 0 1 .383.076l.334.892.774-.557a.23.23 0 0 1 .361.15l.154.942.869-.396a.23.23 0 0 1 .324.217l-.034.953.93-.219a.23.23 0 0 1 .276.277l-.22.929.954-.034a.23.23 0 0 1 .217.325l-.396.868.942.154a.23.23 0 0 1 .15.36l-.557.775.892.334a.23.23 0 0 1 .076.383l-.696.65.81.503a.23.23 0 0 1 0 .39l-.81.502.696.651a.23.23 0 0 1-.076.383l-.892.334.557.774a.23.23 0 0 1-.15.361l-.942.154.396.869a.23.23 0 0 1-.217.324l-.953-.034.219.93a.23.23 0 0 1-.276.276l-.93-.22.034.954a.23.23 0 0 1-.325.217l-.868-.396-.154.942a.23.23 0 0 1-.36.15l-.775-.557-.334.892a.23.23 0 0 1-.383.076l-.65-.696-.503.81a.23.23 0 0 1-.39 0l-.502-.81-.651.696a.23.23 0 0 1-.383-.076l-.334-.892-.774.557a.23.23 0 0 1-.361-.15l-.154-.942-.868.396a.23.23 0 0 1-.325-.217l.034-.953-.93.219a.23.23 0 0 1-.276-.276l.22-.93-.954.034a.23.23 0 0 1-.217-.325l.396-.868-.942-.154a.23.23 0 0 1-.15-.36l.557-.775-.892-.334a.23.23 0 0 1-.076-.383l.696-.65-.81-.503a.23.23 0 0 1 0-.39l.81-.502-.696-.651a.23.23 0 0 1 .076-.383l.892-.334-.557-.774a.23.23 0 0 1 .15-.361l.942-.154-.396-.868a.23.23 0 0 1 .217-.325l.953.034-.219-.93a.23.23 0 0 1 .277-.276l.929.22-.034-.954a.23.23 0 0 1 .325-.217l.868.396L4.8.784a.23.23 0 0 1 .36-.15l.775.557.334-.892a.23.23 0 0 1 .383-.076l.65.696.503-.81A.23.23 0 0 1 8 0ZM6.789 1.042l-.22-.235-.112.3c.11-.024.22-.046.332-.065Zm-.882.695.004.002a.23.23 0 0 0 .349-.106l.001-.004a6.6 6.6 0 0 1 .908-.18l.003.003a.23.23 0 0 0 .363-.036l.003-.003a6.608 6.608 0 0 1 .924 0l.003.003a.23.23 0 0 0 .363.036l.003-.003c.307.039.61.1.908.18l.001.004a.23.23 0 0 0 .35.106l.002-.002c.294.098.58.216.856.354v.005a.23.23 0 0 0 .323.172l.005-.002c.267.153.523.324.768.513v.006a.23.23 0 0 0 .282.231h.005a6.627 6.627 0 0 1 .654.653l-.001.005a.23.23 0 0 0 .231.282h.006c.19.245.36.501.513.768l-.002.005a.23.23 0 0 0 .172.322l.005.001c.138.277.256.562.354.855l-.002.004a.23.23 0 0 0 .106.349l.004.001c.08.297.141.6.18.908l-.003.003a.23.23 0 0 0 .036.363l.003.003a6.583 6.583 0 0 1 0 .924l-.003.003a.23.23 0 0 0-.036.363l.003.003a6.6 6.6 0 0 1-.18.908l-.004.001a.23.23 0 0 0-.106.35l.002.002a6.6 6.6 0 0 1-.354.856h-.005a.23.23 0 0 0-.172.323l.002.005a6.59 6.59 0 0 1-.513.768h-.006a.23.23 0 0 0-.231.282v.005a6.612 6.612 0 0 1-.653.654l-.005-.001a.23.23 0 0 0-.282.231v.006a6.59 6.59 0 0 1-.768.513l-.005-.002a.23.23 0 0 0-.322.172l-.001.005a6.6 6.6 0 0 1-.856.354l-.003-.002a.23.23 0 0 0-.349.106l-.001.004a6.6 6.6 0 0 1-.908.18l-.003-.003a.23.23 0 0 0-.363.036l-.003.003a6.583 6.583 0 0 1-.924 0l-.003-.003a.23.23 0 0 0-.363-.036l-.003.003a6.6 6.6 0 0 1-.908-.18l-.001-.004a.23.23 0 0 0-.35-.106l-.003.002a6.607 6.607 0 0 1-.855-.354v-.005a.23.23 0 0 0-.323-.172l-.005.002a6.591 6.591 0 0 1-.768-.513v-.006a.23.23 0 0 0-.282-.231h-.005a6.599 6.599 0 0 1-.654-.653l.001-.005a.23.23 0 0 0-.231-.282h-.006a6.598 6.598 0 0 1-.513-.768l.002-.005a.23.23 0 0 0-.172-.322l-.005-.001a6.597 6.597 0 0 1-.354-.856l.002-.003a.23.23 0 0 0-.106-.349H1.63a6.6 6.6 0 0 1-.18-.908l.003-.003a.23.23 0 0 0-.036-.363l-.003-.003a6.607 6.607 0 0 1 0-.924l.003-.003a.23.23 0 0 0 .036-.363L1.45 7.17a6.6 6.6 0 0 1 .18-.908l.004-.001a.23.23 0 0 0 .106-.35l-.002-.003c.098-.293.216-.578.354-.855h.005a.23.23 0 0 0 .172-.323l-.002-.005a6.6 6.6 0 0 1 .513-.768h.006a.23.23 0 0 0 .231-.282V3.67a6.613 6.613 0 0 1 .653-.654l.005.001a.23.23 0 0 0 .282-.231V2.78a6.6 6.6 0 0 1 .768-.513l.005.002a.23.23 0 0 0 .322-.172l.001-.005c.277-.138.562-.256.855-.354Zm-.452-.326c-.105.041-.21.084-.313.13l.052-.317.261.187Zm-1.237.624-.293-.133.011.321c.093-.065.186-.128.282-.188Zm-1.091.852-.313-.073.073.313a7.075 7.075 0 0 1 .24-.24Zm-.904 1.05-.321-.012.133.293c.06-.096.123-.19.188-.282Zm-.682 1.205-.317.052.187.261c.041-.105.084-.21.13-.313Zm-.433 1.315-.3.112.234.22a7.05 7.05 0 0 1 .066-.332ZM.939 7.83.666 8l.273.17a7.074 7.074 0 0 1 0-.34Zm.103 1.38-.235.22.3.112a7.05 7.05 0 0 1-.065-.332Zm.37 1.334-.188.261.317.052a7.107 7.107 0 0 1-.13-.313Zm.623 1.237-.133.293.321-.011a7.122 7.122 0 0 1-.188-.282Zm.852 1.091-.073.313.313-.073a6.925 6.925 0 0 1-.24-.24Zm1.05.904-.012.321.293-.133a7.093 7.093 0 0 1-.282-.188Zm1.205.682.052.318.261-.188a7.083 7.083 0 0 1-.313-.13Zm1.315.433.112.3.22-.234a7 7 0 0 1-.332-.066Zm1.374.169.169.273.17-.273a6.806 6.806 0 0 1-.34 0Zm1.38-.103.22.235.112-.3a7 7 0 0 1-.332.065Zm1.334-.37.261.189.052-.318a7.119 7.119 0 0 1-.313.13Zm1.237-.623.293.133-.011-.321a7.167 7.167 0 0 1-.282.188Zm1.091-.852.313.073-.073-.313a7.104 7.104 0 0 1-.24.24Zm.904-1.05.321.012-.133-.293c-.06.095-.123.19-.188.282Zm.682-1.205.318-.052-.188-.261c-.041.105-.085.21-.13.313Zm.433-1.315.3-.112-.234-.22a7 7 0 0 1-.066.332Zm.169-1.374L15.334 8l-.273-.17a6.806 6.806 0 0 1 0 .34Zm-.103-1.38.235-.22-.3-.112a7 7 0 0 1 .065.332Zm-.37-1.334.189-.261-.318-.052c.046.103.089.208.13.313Zm-.623-1.237.133-.293-.321.011a7.1 7.1 0 0 1 .188.282Zm-.852-1.091.073-.313-.313.073a7.262 7.262 0 0 1 .24.24Zm-1.05-.904.012-.321-.293.133c.095.06.19.123.282.188Zm-1.205-.682-.052-.317-.261.187c.105.041.21.084.313.13Zm-1.315-.433-.112-.3-.22.234c.112.019.222.041.332.066ZM8.17.939 8 .666l-.17.273a7.068 7.068 0 0 1 .34 0Z" clip-rule="evenodd"/></g><defs><clipPath id="a"><path fill="#fff" d="M0 0h16v16H0z"/></clipPath></defs></svg>