<svg xmlns="http://www.w3.org/2000/svg" width="16" height="16" fill="none"><g fill="#97A7B1" clip-path="url(#a)"><path fill-rule="evenodd" d="M8.109 16.328c1.75-6.299 1.7-6.327 2.964-10.816l.304.176c.165.096.3.017.3-.174v-2.14c.336-1.184.6-2.098.676-2.373h1.37L16 3.124l-1.495 1.3 1.131 1.23-7.452 10.674c-.037.06-.088.046-.076 0Z" clip-rule="evenodd"/><path fill-rule="evenodd" d="M8.923 2.754c.068 0 .122.037.122.085v1.097c0 .045-.05.084-.118.084h-1.84c-.068 0-.124-.038-.124-.085V2.838c0-.047.056-.084.123-.084h1.84zm2.272-1.215L9.17 2.715a.23.23 0 0 1 .037.124v1.097a.22.22 0 0 1-.062.15l2.043 1.187c.135.082.254.015.254-.146v-3.44c0-.162-.119-.229-.254-.148zM6.797 3.936V2.84q.001-.068.037-.124L4.81 1.539c-.139-.08-.253-.014-.253.147v3.439c0 .163.114.225.253.146l2.046-1.187a.24.24 0 0 1-.058-.152v.004Z" clip-rule="evenodd"/><path fill-rule="evenodd" d="M7.815 16.327h.076c-1.75-6.298-1.7-6.326-2.964-10.815l-.304.176c-.165.096-.301.017-.301-.174v-2.14C3.985 2.19 3.72 1.275 3.642 1H2.273L0 3.124l1.494 1.3-1.131 1.23 7.452 10.671z" clip-rule="evenodd"/><path d="M7.944 6.31a.554.554 0 0 0 .553-.556.554.554 0 0 0-.553-.556.554.554 0 0 0-.552.556c0 .307.247.556.552.556m0 3.308a.554.554 0 0 0 .553-.556.554.554 0 0 0-.553-.556.554.554 0 0 0-.552.556c0 .307.247.556.552.556m0 3.308a.554.554 0 0 0 .553-.556.554.554 0 0 0-.553-.556.554.554 0 0 0-.552.556c0 .307.247.556.552.556"/></g><defs><clipPath id="a"><path fill="#fff" d="M0 0h16v16H0z"/></clipPath></defs></svg>