<svg xmlns="http://www.w3.org/2000/svg" width="16" height="16" fill="none"><path fill="#fff" d="M3.104 2H4v3.595c0 .791.709 1.347 1.432 1.238l2.297 7.753c.049.163-.17.268-.267.127L1.617 6.17a.25.25 0 0 1 .03-.318l.638-.637a.25.25 0 0 0-.039-.385l-.992-.662a.25.25 0 0 1-.038-.385l1.711-1.71A.25.25 0 0 1 3.104 2M12 5.595c0 .791-.708 1.347-1.432 1.238l-2.297 7.753c-.048.163.171.268.268.127l5.844-8.542a.25.25 0 0 0-.03-.318l-.637-.637a.25.25 0 0 1 .038-.385l.993-.662a.25.25 0 0 0 .038-.385l-1.712-1.71A.25.25 0 0 0 12.897 2H12zM9 8a1 1 0 1 1-2 0 1 1 0 0 1 2 0"/><path fill="#fff" d="M5.362 2.18 7 3h2l1.638-.82a.25.25 0 0 1 .362.224v3.191a.25.25 0 0 1-.362.224L9 5H7l-1.638.82A.25.25 0 0 1 5 5.594v-3.19a.25.25 0 0 1 .362-.224"/></svg>