<svg xmlns="http://www.w3.org/2000/svg" width="16" height="16" fill="none"><path fill="#3573F0" d="M7.685 13.412c-.438 0-.795-.095-1.073-.286-.277-.19-.483-.485-.617-.884-.13-.403-.195-.92-.195-1.554h1.118c0 .403.026.735.078.995.056.256.14.444.253.566a.596.596 0 0 0 .449.181.539.539 0 0 0 .416-.168c.108-.117.188-.295.24-.534.052-.242.078-.554.078-.935 0-.412-.054-.74-.162-.982a1.258 1.258 0 0 0-.494-.579l-.579-.35a2.831 2.831 0 0 1-.708-.611 2.243 2.243 0 0 1-.403-.768 3.505 3.505 0 0 1-.13-1c0-.585.058-1.062.175-1.43.122-.369.306-.64.553-.813.247-.173.568-.26.962-.26.403 0 .73.089.981.266.252.174.438.447.56.82.12.368.181.847.181 1.436H8.257c0-.36-.022-.652-.065-.878-.043-.225-.108-.392-.195-.5a.402.402 0 0 0-.338-.163c-.208 0-.36.122-.455.365-.095.238-.143.621-.143 1.15 0 .342.05.624.15.845.103.217.266.392.487.526l.637.39c.286.178.516.384.689.618.178.23.308.5.39.813.082.311.123.675.123 1.091 0 .611-.065 1.112-.195 1.502-.13.386-.331.672-.604.858-.269.182-.62.273-1.053.273Zm5.606-.156-1.371-4.16-.3-.293-1.618-4.647h1.105l1.047 3.114.325.357 1.91 5.629h-1.098Zm-3.419 0 1.93-5.649.293-.266 1.08-3.185h1.085l-1.651 4.712-.3.293-1.351 4.095H9.872Zm-8.072-9h4v1h-4zm1.5 1h1v8h-1z"/></svg>