<svg xmlns="http://www.w3.org/2000/svg" width="16" height="16" fill="none"><path fill="#548AF7" d="M14 4a2 2 0 0 0-2-2H4a2 2 0 0 0-2 2v8a2 2 0 0 0 2 2h8a2 2 0 0 0 2-2V4Z"/><path fill="#fff" d="M3.135 6h4.737v1H6v5H5V7H3.135V6Zm7.549 6.103c-.425 0-.801-.077-1.129-.231a1.878 1.878 0 0 1-.77-.65 1.718 1.718 0 0 1-.282-.958h1.014c0 .189.05.357.15.505a.99.99 0 0 0 .414.346c.18.08.385.12.615.12.226 0 .424-.037.595-.111a.888.888 0 0 0 .393-.312.81.81 0 0 0 .141-.47.862.862 0 0 0-.735-.873l-1.014-.17a1.815 1.815 0 0 1-.756-.309 1.584 1.584 0 0 1-.496-.577 1.722 1.722 0 0 1-.171-.765c0-.33.085-.627.256-.89a1.75 1.75 0 0 1 .723-.619 2.336 2.336 0 0 1 1.043-.227c.396 0 .748.073 1.056.218.31.146.553.348.727.607.174.26.262.556.265.89H11.71a.768.768 0 0 0-.129-.436.837.837 0 0 0-.359-.304 1.26 1.26 0 0 0-.534-.107 1.3 1.3 0 0 0-.535.103.83.83 0 0 0-.359.29.755.755 0 0 0-.128.437.74.74 0 0 0 .188.504c.126.14.29.227.492.26l.996.163c.293.052.554.161.782.33.231.168.41.377.535.628.125.25.188.517.188.8 0 .341-.091.65-.274.927a1.858 1.858 0 0 1-.765.646 2.576 2.576 0 0 1-1.124.235Z"/></svg>