<svg xmlns="http://www.w3.org/2000/svg" width="16" height="16" fill="none"><path fill="#498DB7" d="M14.103 12.204a5.248 5.248 0 0 0-1.98.911c-.908.57-1.89 1.015-2.917 1.321a.816.816 0 0 1-.492.275A31.127 31.127 0 0 1 5.491 15c-.582.004-.938-.15-1.037-.388a.787.787 0 0 1 .433-1.037 1.886 1.886 0 0 1-.257-.19c-.086-.085-.176-.257-.203-.194-.113.275-.172.947-.474 1.25-.415.42-1.2.28-1.664.036-.51-.27.036-.906.036-.906a.367.367 0 0 1-.496-.172 2.424 2.424 0 0 1-.333-1.474 2.687 2.687 0 0 1 .874-1.448 4.663 4.663 0 0 1 .33-2.2 5.223 5.223 0 0 1 1.582-1.83s-.97-1.074-.608-2.039c.234-.631.329-.626.406-.654.272-.084.52-.23.726-.428a2.633 2.633 0 0 1 2.205-.85S7.599.699 8.137 1.044c.298.458.555.94.767 1.444 0 0 .64-.374.712-.235.369.978.46 2.04.262 3.066a7.005 7.005 0 0 1-1.3 2.706c-.068.112.775.469 1.308 1.943.491 1.35.054 2.48.13 2.606a.555.555 0 0 1 .018.032s.564.045 1.696-.654a4.25 4.25 0 0 1 2.139-.802.54.54 0 0 1 .234 1.055Z"/></svg>